<?xml version="1.0" encoding="utf-8"?>
<!-- Generator: Adobe Illustrator 16.0.0, SVG Export Plug-In . SVG Version: 6.00 Build 0)  -->
<!DOCTYPE svg PUBLIC "-//W3C//DTD SVG 1.1//EN" "http://www.w3.org/Graphics/SVG/1.1/DTD/svg11.dtd">
<svg version="1.1" id="Layer_1" xmlns="http://www.w3.org/2000/svg" xmlns:xlink="http://www.w3.org/1999/xlink" x="0px" y="0px"
	 width="24px" height="24px" viewBox="0 0 24 24" enable-background="new 0 0 24 24" xml:space="preserve">
<path fill="none" stroke="#828282" stroke-width="1.5" d="M16,2c0.363,2.179-1.912,3.831-3.184,4.571
	c-0.376,0.219-0.799-0.06-0.734-0.489C12.299,4.639,13.094,2,16,2z"/>
<path fill="none" stroke="#828282" stroke-width="1.5" d="M9,6.5c0.897,0,1.69,0.199,2.294,0.42c0.762,0.279,1.649,0.279,2.411,0
	C14.31,6.699,15.104,6.5,16,6.5c1.085,0,2.465,0.589,3.5,1.767C16,11,17,15.5,20.27,16.691c-1.045,2.867-3.028,4.809-4.77,4.809
	c-1.5,0-1.5-0.7-3-0.7s-1.5,0.7-3,0.7c-2.5,0-5.5-4-5.5-9C4,8.5,7,6.5,9,6.5z"/>
</svg>
