<?xml version="1.0" encoding="utf-8"?>
<!-- Generator: Adobe Illustrator 16.0.0, SVG Export Plug-In . SVG Version: 6.00 Build 0)  -->
<!DOCTYPE svg PUBLIC "-//W3C//DTD SVG 1.1//EN" "http://www.w3.org/Graphics/SVG/1.1/DTD/svg11.dtd">
<svg version="1.1" id="Layer_1" xmlns="http://www.w3.org/2000/svg" xmlns:xlink="http://www.w3.org/1999/xlink" x="0px" y="0px"
	 width="841.89px" height="595.281px" viewBox="0 0 841.89 595.281" enable-background="new 0 0 841.89 595.281"
	 xml:space="preserve">
<path fill="#828282" d="M675.972,243.594c13.457-40.545,8.793-84.922-12.799-121.785c-32.469-56.521-97.732-85.595-161.469-71.93
	c-55.541-61.788-150.655-66.852-212.443-11.31c-19.595,17.614-34.22,40.066-42.412,65.108c-41.868,8.584-78.005,34.796-99.164,71.93
	c-32.83,56.433-25.377,127.621,18.429,176.029c-13.524,40.531-8.915,84.924,12.65,121.811
	c32.513,56.541,97.822,85.611,161.594,71.93c28.361,31.953,69.114,50.139,111.838,49.904
	c65.33,0.059,123.207-42.115,143.166-104.324c41.852-8.605,77.973-34.813,99.139-71.93
	C726.931,362.701,719.455,291.904,675.972,243.594L675.972,243.594z M452.197,556.339c-26.068,0.043-51.322-9.088-71.334-25.795
	l3.497-2.01l118.536-68.408c5.99-3.523,9.684-9.939,9.723-16.891v-167.1l50.102,28.971c0.502,0.254,0.854,0.732,0.943,1.289v138.477
	C563.527,506.376,513.701,556.203,452.197,556.339L452.197,556.339z M212.597,454c-13.084-22.58-17.783-49.053-13.27-74.756
	l3.522,2.107l118.634,68.434c5.973,3.502,13.374,3.502,19.347,0l144.925-83.563v57.84c-0.021,0.611-0.322,1.18-0.818,1.539
	l-120.048,69.227C311.551,525.533,243.423,507.269,212.597,454z M181.345,195.847c13.169-22.729,33.958-40.065,58.685-48.937
	v140.809c-0.088,6.925,3.6,13.349,9.624,16.767l144.231,83.215l-50.103,28.971c-0.551,0.291-1.21,0.291-1.761,0l-119.8-69.102
	c-53.255-30.846-71.532-98.954-40.875-152.318V195.847z M593.005,291.464l-144.678-84.009l49.979-28.871
	c0.551-0.291,1.211-0.291,1.762,0l119.799,69.226c53.336,30.743,71.65,98.902,40.908,152.236
	c-12.959,22.482-33.355,39.74-57.674,48.795V308.007C602.89,301.099,599.052,294.812,593.005,291.464z M642.861,216.483
	l-3.498-2.108l-118.41-69.003c-6.012-3.525-13.459-3.525-19.471,0l-144.803,83.563v-57.866c-0.061-0.593,0.205-1.173,0.695-1.513
	l119.799-69.127c53.428-30.748,121.666-12.362,152.412,41.065c12.971,22.535,17.664,48.891,13.275,74.519V216.483z M329.346,319.044
	l-50.103-28.87c-0.51-0.306-0.856-0.825-0.942-1.414V150.68c0.121-61.643,50.191-111.517,111.834-111.396
	c25.971,0.051,51.111,9.157,71.091,25.75l-3.523,1.984l-118.51,68.408c-6.001,3.517-9.705,9.936-9.748,16.891L329.346,319.044z
	 M356.555,260.386l64.539-37.205l64.662,37.205v74.385l-64.414,37.205l-64.663-37.205L356.555,260.386z"/>
</svg>
