<?xml version="1.0" encoding="utf-8"?>
<!-- Generator: Adobe Illustrator 16.0.0, SVG Export Plug-In . SVG Version: 6.00 Build 0)  -->
<!DOCTYPE svg PUBLIC "-//W3C//DTD SVG 1.1//EN" "http://www.w3.org/Graphics/SVG/1.1/DTD/svg11.dtd">
<svg version="1.1" id="Layer_1" xmlns="http://www.w3.org/2000/svg" xmlns:xlink="http://www.w3.org/1999/xlink" x="0px" y="0px"
	 width="800px" height="800px" viewBox="0 0 800 800" enable-background="new 0 0 800 800" xml:space="preserve">
<path fill="#828282" d="M425.293,75.537l-22.803,41.504c-54.357,98.812-108.687,197.579-163.037,296.387l-47.9-47.9l-16.504,27.441
	c-48.824,81.374-97.657,162.786-146.484,244.189L5.859,675H50h737.939l-14.941-34.863c-24.999-58.322-49.999-116.673-75-175
	l-14.551-33.936l-51.709,51.709C570.083,361.198,508.354,239.484,446.68,117.773L425.293,75.537z M423.486,182.568
	c25.323,49.975,50.659,99.932,75.977,149.902l-19.336,16.602l-56.982-48.828l-56.982,48.828l-23.242-19.971
	C369.776,280.258,396.622,231.408,423.486,182.568z M423.145,366.064l56.982,48.828l42.578-36.475
	c26.658,52.62,53.325,105.238,79.98,157.861l15.576,30.811l48.291-48.291C681.724,554.197,696.889,589.6,712.061,625H94.141
	c35.774-59.633,71.55-119.236,107.324-178.857l49.707,49.707l16.064-29.15c17.022-30.944,34.058-61.877,51.074-92.822l47.852,41.016
	L423.145,366.064z"/>
</svg>
