<?xml version="1.0" encoding="utf-8"?>
<!-- Generator: Adobe Illustrator 16.0.0, SVG Export Plug-In . SVG Version: 6.00 Build 0)  -->
<!DOCTYPE svg PUBLIC "-//W3C//DTD SVG 1.1//EN" "http://www.w3.org/Graphics/SVG/1.1/DTD/svg11.dtd">
<svg version="1.1" id="Layer_1" xmlns="http://www.w3.org/2000/svg" xmlns:xlink="http://www.w3.org/1999/xlink" x="0px" y="0px"
	 width="64px" height="64px" viewBox="0 0 64 64" enable-background="new 0 0 64 64" xml:space="preserve">
<path fill="#828282" d="M14.547,5.609c-1.592,0-2.859,1.283-2.859,2.875v47.031c0,1.592,1.268,2.875,2.859,2.875h34.906
	c1.592,0,2.859-1.283,2.859-2.875V20.172H41.797c-2.152,0-4.031-1.57-4.031-3.656V5.609H14.547z M39.766,5.609v10.906
	c0,0.857,0.816,1.656,2.031,1.656h10.516L39.766,5.609z M28.375,25.064h6.891c0.645,0,1.156,0.328,1.156,0.734v5.139h3.719
	l-8.313,7.391l-8.313-7.391h3.719v-5.139C27.234,25.392,27.73,25.064,28.375,25.064z M35.031,40.172h1.781l-3.094,12.766h-1.75
	L35.031,40.172z M26.406,41.953v2.391l-5.922,2.266l5.922,2.344v2.375l-8.469-3.672v-2.047L26.406,41.953z M37.578,41.969
	l8.469,3.656v2.031l-8.469,3.672v-2.375l5.922-2.313l-5.922-2.313V41.969z"/>
</svg>
