<?xml version="1.0" encoding="utf-8"?>
<!-- Generator: Adobe Illustrator 16.0.0, SVG Export Plug-In . SVG Version: 6.00 Build 0)  -->
<!DOCTYPE svg PUBLIC "-//W3C//DTD SVG 1.1//EN" "http://www.w3.org/Graphics/SVG/1.1/DTD/svg11.dtd">
<svg version="1.1" id="Layer_1" xmlns="http://www.w3.org/2000/svg" xmlns:xlink="http://www.w3.org/1999/xlink" x="0px" y="0px"
	 width="512px" height="512px" viewBox="0 0 512 512" enable-background="new 0 0 512 512" xml:space="preserve">
<path fill="#828282" d="M320,42.667H85.333v234.667H128v-42.667v-22.4V85.333h174.293L384,167.04v45.227v22.4v42.667h42.667v-128
	L320,42.667z M158.014,320.234l-30.208,41.771l-29.824-41.771H64.424l45.035,62.379l-47.381,65.749h34.069l30.229-42.773
	l30.379,42.773h34.794l-47.083-65.023l46.549-63.104H158.014z M293.162,389.273c-2.176,6.678-4.672,15.317-7.509,25.856
	c-2.815-10.667-5.312-19.285-7.403-25.856l-22.144-69.27h-42.773v128.128H240V344.409c2.944,11.051,5.525,19.904,7.68,26.604
	l24.96,77.119h24.768l25.686-79.296c2.645-8.085,5.013-16.213,7.039-24.427v103.723h27.776V320.004h-42.304L293.162,389.273z
	 M387.029,320.234v128.128h83.904v-22.613h-55.04V320.234H387.029z"/>
</svg>
