<svg xmlns="http://www.w3.org/2000/svg" height="800" width="1200" viewBox="-45 -90.5 390 543">
	<path fill="#828282" d="M23.878 242.635c-15.684 0-22.085-11.65-22.085-21.381 0-8.515 6.593-21.254 22.406-21.254 12.675 0 22.341 7.554 22.341 20.421 0 12.228-9.026 22.214-22.662 22.214zm1.6-2.176c4.29 0 15.045-2.177 15.045-18.437 0-12.868-7.938-20.037-16.709-20.037-8.898 0-16.068 5.505-16.068 17.604 0 12.548 6.978 20.87 17.733 20.87zm31.913-14.34v-9.603c0-8.834 0-9.986-.128-11.715-.128-1.664-.64-2.688-2.432-3.073a19.392 19.392 0 00-1.985-.128c-.128 0-.384-.128-.384-.32 0-.384.32-.512.896-.512 2.753 0 6.274.192 6.658.192 1.344 0 4.61-.192 7.234-.192 7.042 0 9.603 2.305 10.499 3.073 1.216 1.088 2.817 3.585 2.817 7.17 0 7.106-5.89 12.291-13.892 12.291-.256 0-.896 0-1.216-.064-.257 0-.577-.128-.577-.384 0-.512.384-.512 1.6-.512 5.058 0 9.283-3.457 9.283-9.09 0-.833.192-4.674-2.752-7.747-3.137-3.328-6.786-3.008-7.939-3.008-.832 0-1.792.128-2.176.32-.32.128-.384.576-.384 1.024v22.15c0 4.93 0 9.538.256 11.843.192 1.537.512 2.817 2.24 3.009.769.128 2.049.256 2.561.256.256 0 .384.128.384.32 0 .32-.256.512-.896.512-3.329 0-6.914-.192-7.234-.192-.064 0-3.841.192-5.633.192-.577 0-.897-.128-.897-.512 0-.192.128-.32.448-.32.449 0 1.153-.128 1.665-.256 1.152-.192 1.472-1.472 1.664-3.009.32-2.305.32-6.914.32-11.715zm33.77 0v-9.603c0-8.386 0-9.922-.129-11.65-.128-1.793-.576-2.69-2.432-3.074a10.623 10.623 0 00-1.537-.128c-.448 0-.832-.192-.832-.384 0-.384.32-.512.96-.512 1.28 0 3.01.128 6.594.192.32 0 11.715 0 12.996-.064 1.28-.064 1.984-.128 2.496-.32.384-.128.448-.192.704-.192.128 0 .256.128.256.448 0 .384-.384 1.28-.512 2.881-.064 1.088-.128 2.113-.192 3.329 0 .576-.128.96-.448.96s-.448-.256-.448-.704c-.064-.96-.256-1.6-.448-2.049-.384-1.28-.96-1.728-4.161-1.92-.832-.064-7.17-.128-7.298-.128-.192 0-.32.128-.32.512v14.532c0 .384.064.64.384.64.768 0 7.298-.064 8.642-.192 1.473-.064 2.433-.256 2.945-.96.256-.384.448-.512.704-.512.128 0 .256.064.256.384s-.256 1.536-.448 3.393c-.192 1.792-.192 3.072-.256 3.905-.064.512-.192.704-.448.704-.32 0-.384-.384-.384-.832 0-.384-.064-1.025-.192-1.537-.256-.832-.64-1.728-3.073-1.92-1.472-.128-6.658-.256-7.682-.256-.384 0-.448.192-.448.448v4.673c0 1.985-.064 7.618 0 8.706.128 2.369.448 3.585 1.792 4.161.96.449 2.497.577 4.673.577 1.217 0 3.265.064 4.866-.385 1.92-.576 2.368-1.856 2.88-4.225.129-.64.32-.896.577-.896.384 0 .384.576.384.96 0 .448-.512 4.482-.704 5.57-.256 1.28-.705 1.408-2.817 1.408-4.225 0-6.018-.128-8.258-.128-2.241-.064-5.186-.192-7.554-.192-1.473 0-2.69.192-4.225.192-.577 0-.897-.128-.897-.448 0-.256.256-.448.576-.448a4.78 4.78 0 001.28-.192c1.153-.256 1.921-1.088 2.05-5.057.063-2.177.127-4.802.127-9.667zm30.888 7.81c0-30.536.064-20.677 0-31.304 0-1.985.192-2.625.704-2.625.448 0 1.536 1.28 1.984 1.728.576.64 9.475 9.731 18.437 18.885 4.994 4.866 11.395 11.46 13.06 12.996l-.704-26.631c-.064-3.457-.449-4.61-2.177-5.057-1.088-.193-2.049-.257-2.497-.257-.64 0-.768-.256-.768-.512 0-.32.512-.384 1.152-.384 2.753 0 5.442.192 6.018.192.64 0 2.625-.192 5.121-.192.705 0 .897.064.897.384 0 .256-.192.448-.577.512-.384.064-.896.064-1.6.192-1.472.32-1.92.96-1.92 4.802l-.129 32.136c0 3.201-.128 3.521-.576 3.521-.448 0-1.088-.448-4.225-3.393-.256-.128-9.154-8.962-14.724-14.403a29631.77 29631.77 0 01-14.66-15.237l.833 25.031c.128 4.417.512 6.082 2.112 6.466 1.024.256 2.113.256 2.625.256s.768.192.768.448c0 .32-.32.448-1.024.448-3.457 0-5.762-.192-6.21-.192-.448 0-2.817.192-5.57.192-.576 0-.96-.064-.96-.448 0-.256.256-.448.897-.448.448 0 1.152 0 1.984-.256 1.409-.448 1.729-2.177 1.729-6.85zm-108.541 42.27v12.227c0 9.218.064 12.803-1.729 16.9-1.152 2.753-3.713 5.314-8.706 8.643-.704.384-1.665 1.088-2.24 1.344-.065.064-.193.064-.385.064-.128 0-.448-.064-.448-.32 0-.384.384-.512.832-.832.64-.32 1.409-.96 1.793-1.345 3.84-3.649 5.697-6.401 5.697-21.061v-15.62c0-8.45 0-9.923-.128-11.651-.128-1.729-.704-2.625-2.496-3.073-.385-.064-1.409-.128-1.921-.128-.192 0-.448-.192-.448-.384 0-.385.32-.513.96-.513 2.689 0 6.402.192 6.594.192.256 0 4.033-.192 5.826-.192.64 0 .896.128.896.513 0 .192-.256.384-.384.384-.384 0-.769.064-1.473.128-1.472.32-1.984 1.28-2.112 3.137-.128 1.728-.128 3.136-.128 11.587zm27.082 26.119c-15.684 0-22.085-11.651-22.085-21.382 0-8.514 6.593-21.254 22.406-21.254 12.675 0 22.341 7.554 22.341 20.422 0 12.227-9.026 22.214-22.662 22.214zm1.6-2.177c4.29 0 15.045-2.176 15.045-18.437 0-12.867-7.938-20.037-16.709-20.037-8.898 0-16.068 5.505-16.068 17.605 0 12.547 6.978 20.87 17.733 20.87zM74.01 276.2v7.618c0 7.81 1.473 11.139 3.906 13.315 2.753 2.433 5.825 2.945 8.45 2.945 3.329 0 6.338-.896 8.77-3.713 2.561-2.945 3.137-7.81 3.137-13.38V276.2c0-8.387 0-9.859-.128-11.587-.128-1.857-.32-2.817-2.368-3.137a14.731 14.731 0 00-1.793-.128c-.384 0-.64-.192-.64-.384 0-.384.32-.512.896-.512 2.753 0 5.954.192 6.21.192.32 0 3.073-.192 4.865-.192.64 0 .896.128.896.448 0 .256-.256.448-.64.448s-.512 0-1.152.064c-1.792.192-2.049 1.344-2.177 3.2-.064 1.73-.064 3.201-.064 11.588v5.697c0 5.762-.64 12.676-5.185 16.58-4.161 3.522-8.258 3.842-11.715 3.842-1.793 0-7.81 0-11.971-3.841-2.753-2.561-4.738-6.402-4.738-14.34V276.2c0-8.45 0-9.923-.192-11.651-.064-1.729-.384-2.817-2.368-3.073a12.591 12.591 0 00-1.665-.128c-.448 0-.704-.192-.704-.384 0-.384.256-.513.96-.513 2.753 0 6.21.193 6.658.193.512 0 4.29-.193 6.018-.193.704 0 .896.129.896.449s-.448.448-.768.448c-.384 0-.896.064-1.409.128-1.536.192-1.792 1.28-1.92 3.073-.064 1.728-.064 3.2-.064 11.65zm39.809 9.602V276.2c0-8.45 0-9.987-.128-11.715-.128-1.729-.576-2.69-2.56-3.073a10.624 10.624 0 00-1.537-.128c-.448 0-.704-.128-.704-.384s.192-.448.768-.448c2.752 0 6.658.192 6.786.192.576 0 4.929-.192 6.721-.192 3.585 0 7.49.32 10.5 2.432a9.715 9.715 0 013.84 7.81c0 3.521-1.728 8.002-6.786 12.1 4.674 5.761 8.515 10.498 11.78 13.891 3.072 3.137 4.993 3.65 6.785 3.905.448.064 1.793.128 1.985.128.512 0 .704.192.704.448 0 .32-.256.449-1.152.449h-4.481c-3.01 0-4.418-.192-5.826-.769-2.689-1.152-4.61-4.033-7.938-8.322-2.497-3.073-5.057-6.53-6.146-7.874-.256-.256-.384-.384-.768-.384l-6.594-.064c-.256 0-.32.064-.32.32v.896c0 5.122 0 9.795.32 12.1.192 1.536.384 2.816 2.497 3.072.64.064 1.344.128 1.856.128.577 0 .833.192.833.384 0 .32-.256.513-.897.513-3.328 0-6.913-.192-7.17-.192-1.024 0-3.84.192-5.57.192-.64 0-.895-.128-.895-.513 0-.192.384-.384.768-.384.448 0 .896 0 1.408-.128 1.089-.192 1.473-.896 1.665-2.432.32-2.305.256-7.554.256-12.356zm4.93-22.47v17.413c0 .32.063.64.32.768.831.448 3.392.832 5.697.832 1.344 0 2.945-.064 4.289-.96 1.92-1.216 3.2-4.033 3.2-8.13 0-6.978-3.712-10.819-9.41-10.819-1.6 0-2.945.128-3.713.32-.192.064-.384.256-.384.576zm33.896 30.28c0-30.536.064-20.677 0-31.304 0-1.985.192-2.625.704-2.625.449 0 1.537 1.28 1.985 1.729.576.64 9.474 9.73 18.437 18.885 4.993 4.865 11.395 11.459 13.06 12.995l-.705-26.63c-.064-3.458-.448-4.61-2.176-5.058-1.089-.192-2.049-.256-2.497-.256-.64 0-.768-.256-.768-.512 0-.32.512-.384 1.152-.384 2.753 0 5.441.192 6.018.192.64 0 2.624-.192 5.12-.192.705 0 .897.064.897.384 0 .256-.192.448-.576.512-.384.064-.896.064-1.6.192-1.473.32-1.92.96-1.92 4.801l-.129 32.137c0 3.2-.128 3.52-.576 3.52-.448 0-1.088-.448-4.225-3.392-.256-.128-9.155-8.963-14.724-14.404a29791.5 29791.5 0 01-14.66-15.236l.832 25.03c.128 4.418.512 6.082 2.113 6.466 1.024.256 2.112.256 2.624.256.513 0 .769.192.769.448 0 .32-.32.448-1.025.448-3.457 0-5.761-.192-6.21-.192-.447 0-2.816.192-5.569.192-.576 0-.96-.064-.96-.448 0-.256.256-.448.896-.448.448 0 1.153 0 1.985-.256 1.408-.448 1.728-2.176 1.728-6.85zm66.048-7.618h-11.651c-.32 0-.512.192-.64.512l-2.817 8.003c-.64 1.792-1.088 3.52-1.088 4.545 0 1.152.704 1.664 2.112 1.664h.448c.577 0 .769.192.769.448 0 .32-.513.449-.96.449-1.41 0-4.354-.192-5.058-.192-.64 0-3.457.192-6.146.192-.704 0-1.024-.128-1.024-.449 0-.256.256-.448.768-.448.32 0 .897 0 1.28-.064 2.753-.256 3.842-2.368 4.93-5.057l12.803-33.737c.705-1.856.897-2.177 1.345-2.177.32 0 .576.256 1.28 2.049.896 2.113 9.603 24.454 12.996 32.457 2.112 5.057 3.969 5.89 4.865 6.21.832.32 1.728.32 2.176.32.449 0 .769.127.769.448 0 .32-.256.448-.96.448-.64 0-5.442 0-9.731-.128-1.217-.064-1.6-.128-1.6-.449 0-.192.191-.384.447-.448.257-.128.64-.448.257-1.408l-5.058-12.867c-.128-.193-.256-.32-.512-.32zm-11.011-2.24h10.243c.256 0 .256-.192.192-.384l-5.057-14.148c-.32-.896-.385-.896-.705 0l-4.801 14.148c-.128.256 0 .384.128.384zm36.48-7.554v9.73c0 7.362.255 11.075 1.344 12.1 1.024.896 2.304 1.28 6.721 1.28 2.817 0 5.378 0 6.786-1.793.64-.96 1.088-2.24 1.216-3.2.064-.513.193-.769.513-.769.256 0 .384.192.384.833 0 .64-.384 4.289-.769 5.761-.384 1.28-.32 1.6-3.392 1.6-4.354 0-9.155-.32-15.557-.32-2.112 0-3.392.193-5.633.193-.64 0-1.024-.128-1.024-.513 0-.192.192-.384.704-.384s1.024 0 1.536-.128c1.089-.192 1.473-1.472 1.665-3.009.384-2.432.256-6.85.256-11.779V276.2c0-8.45 0-9.859-.128-11.587-.128-1.793-.384-2.945-2.561-3.201-.384-.064-1.088-.064-1.6-.064-.448 0-.705-.192-.705-.448 0-.32.32-.448.96-.448 2.69 0 6.53.192 6.658.192.897 0 4.802-.192 6.594-.192.64 0 .832.192.832.448s-.32.448-.704.448c-.448 0-1.088.064-1.728.128-1.793.256-2.177 1.28-2.305 3.137-.128 1.728-.064 3.136-.064 11.587zM12.611 362c-2.69 0-5.186-.32-7.619-1.408-.832-.385-.832-.64-.832-2.177 0-2.945.192-5.121.256-6.018.064-.576.192-.896.512-.896s.448.192.448.64c0 .384 0 1.153.193 1.92.832 4.162 4.609 5.762 8.322 5.762 5.313 0 7.874-3.649 7.874-6.85 0-3.648-1.665-5.889-6.338-9.666l-2.56-1.985c-6.146-4.929-7.426-8.322-7.426-12.099 0-5.89 4.673-9.858 11.843-9.858 2.24 0 3.777.192 5.185.512 1.216.256 1.729.32 2.177.32.448 0 .576.128.576.384s-.256 2.497-.256 6.21c0 .96-.128 1.344-.448 1.344s-.385-.256-.449-.704c-.064-.576-.192-1.92-.768-3.009-.32-.576-1.792-3.009-7.17-3.009-3.84 0-6.721 2.305-6.721 6.146 0 3.009 1.536 4.865 6.85 8.898l1.472 1.152c6.658 5.122 8.386 8.515 8.386 13.06 0 2.305-.96 6.402-4.865 9.09-2.497 1.6-5.57 2.241-8.643 2.241zm33.448-9.987v-4.673c0-3.073-.448-4.225-1.408-5.89-.384-.704-7.81-12.803-9.795-15.556-1.728-2.432-2.368-3.2-3.265-3.905-.896-.64-1.728-.896-3.008-.96-.384 0-.705-.192-.705-.512 0-.192.257-.384.769-.384 1.024 0 5.89.192 6.017.192.384 0 2.497-.192 4.866-.192.64 0 .832.192.832.384 0 .256-.192.384-.704.512-.897.192-1.025.512-1.025 1.024 0 .64.384 1.28.833 2.113.832 1.6 9.282 15.172 10.242 16.772 1.025-2.24 8.194-13.955 9.09-15.556 1.217-2.112 1.473-2.689 1.473-3.393 0-.832-.768-.832-1.472-.96-.512-.064-.704-.256-.704-.512 0-.192.128-.384.768-.384 1.536 0 2.88.192 3.905.192.832 0 4.545-.192 5.633-.192.576 0 .769.192.769.384 0 .32-.32.512-.769.512-1.344.064-2.304.192-3.2.832-.96.64-1.345 1.217-2.37 2.625-3.712 5.121-9.922 15.556-10.882 17.797-.768 1.984-.64 3.393-.64 5.057v4.673c0 .448 0 2.817.128 5.122.128 1.536.256 2.624 2.24 3.008.833.193 1.92.257 2.369.257.512 0 .704.192.704.384 0 .32-.192.512-.768.512-3.2 0-7.17-.192-7.362-.192-.128 0-3.97.192-5.762.192-.64 0-.896-.192-.896-.512 0-.192.192-.384.64-.384.513 0 1.089-.064 1.6-.193 1.09-.192 1.537-1.536 1.665-3.072.192-2.305.192-4.61.192-5.122zM79.061 362c-2.689 0-5.185-.32-7.618-1.408-.832-.385-.832-.64-.832-2.177 0-2.945.192-5.121.256-6.018.064-.576.192-.896.512-.896s.448.192.448.64c0 .384 0 1.153.192 1.92.832 4.162 4.61 5.762 8.322 5.762 5.314 0 7.875-3.649 7.875-6.85 0-3.648-1.665-5.889-6.338-9.666l-2.56-1.985c-6.146-4.929-7.427-8.322-7.427-12.099 0-5.89 4.673-9.858 11.843-9.858 2.24 0 3.777.192 5.186.512 1.216.256 1.728.32 2.176.32.448 0 .577.128.577.384s-.257 2.497-.257 6.21c0 .96-.128 1.344-.448 1.344s-.384-.256-.448-.704c-.064-.576-.192-1.92-.768-3.009-.32-.576-1.792-3.009-7.17-3.009-3.841 0-6.722 2.305-6.722 6.146 0 3.009 1.537 4.865 6.85 8.898l1.473 1.152c6.657 5.122 8.386 8.515 8.386 13.06 0 2.305-.96 6.402-4.866 9.09-2.496 1.6-5.57 2.241-8.642 2.241zm37.674-39.37v22.854c0 4.929.064 9.474.32 11.843.192 1.536.32 2.432 1.92 2.816.769.193 1.985.257 2.497.257.513 0 .769.192.769.384 0 .32-.192.512-.833.512-3.264 0-7.041-.192-7.298-.192-.256 0-4.033.192-5.697.192-.704 0-.96-.128-.96-.448 0-.192.192-.448.704-.448s.896 0 1.408-.064c1.217-.193 1.409-.96 1.665-3.137.256-2.305.256-6.914.256-11.715v-22.855c-2.113 0-5.506 0-8.066.064-4.097.064-4.994.705-5.89 2.05-.576.895-.832 1.663-.96 1.984-.192.448-.32.512-.576.512-.256 0-.32-.256-.32-.576-.064-.385.896-4.61 1.28-6.338.192-.768.384-1.024.576-1.024.448 0 1.665.576 2.817.704 2.24.256 4.033.32 4.097.32h20.998c1.792 0 3.712-.128 4.609-.32.832-.192 1.024-.256 1.216-.256.256 0 .384.32.384.576 0 1.792-.128 6.017-.128 6.53 0 .576-.256.768-.448.768-.32 0-.448-.256-.448-.768 0-.192 0-.256-.064-.897-.256-2.56-1.088-3.2-7.554-3.265-2.433 0-4.417-.064-6.274-.064zm24.295 22.854v-9.603c0-8.386 0-9.923-.128-11.651-.128-1.793-.577-2.689-2.433-3.073a10.624 10.624 0 00-1.536-.128c-.449 0-.833-.192-.833-.384 0-.384.32-.512.96-.512 1.28 0 3.01.128 6.594.192.32 0 11.715 0 12.996-.064 1.28-.064 1.984-.128 2.496-.32.385-.128.449-.192.705-.192.128 0 .256.128.256.448 0 .384-.384 1.28-.512 2.88-.064 1.089-.128 2.113-.192 3.33 0 .576-.128.96-.449.96-.32 0-.448-.256-.448-.704-.064-.96-.256-1.6-.448-2.049-.384-1.28-.96-1.728-4.161-1.92-.832-.065-7.17-.129-7.298-.129-.192 0-.32.128-.32.513v14.531c0 .385.064.64.384.64.768 0 7.298-.063 8.642-.191 1.473-.064 2.433-.256 2.945-.96.256-.385.448-.513.704-.513.128 0 .256.064.256.384s-.256 1.537-.448 3.393c-.192 1.793-.192 3.073-.256 3.905-.064.512-.192.704-.448.704-.32 0-.384-.384-.384-.832 0-.384-.064-1.024-.192-1.536-.256-.832-.64-1.729-3.073-1.92-1.472-.129-6.658-.257-7.682-.257-.384 0-.448.192-.448.448v4.674c0 1.984-.064 7.618 0 8.706.128 2.369.448 3.585 1.792 4.161.96.448 2.497.576 4.674.576 1.216 0 3.265.064 4.865-.384 1.92-.576 2.369-1.856 2.88-4.225.129-.64.32-.896.577-.896.384 0 .384.576.384.96 0 .448-.512 4.481-.704 5.57-.256 1.28-.704 1.408-2.817 1.408-4.225 0-6.018-.128-8.258-.128-2.24-.064-5.186-.192-7.554-.192-1.473 0-2.689.192-4.225.192-.576 0-.897-.128-.897-.448 0-.256.257-.448.577-.448.384 0 .832-.064 1.28-.193 1.152-.256 1.92-1.088 2.049-5.057.064-2.176.128-4.801.128-9.666zm70.835-24.519l4.033 33.289c.192 1.536.576 5.121 3.072 5.697 1.089.256 2.369.385 3.265.449.256 0 .833.064.833.384s-.257.512-.96.512c-1.153 0-8.067-.256-10.115-.384-1.409-.128-1.921-.256-1.921-.576 0-.193.256-.449.576-.577.32-.128.512-.896.384-1.792l-2.816-27.4-13.572 27.528c-1.216 2.497-1.408 3.073-1.985 3.073-.384 0-.704-.576-1.92-2.753-1.024-1.856-6.146-12.1-6.53-12.675-.384-.769-6.658-13.188-7.17-14.532l-2.368 24.646c-.064.897-.064 1.473-.064 2.433 0 .704.32 1.664 1.6 1.92.704.129 1.152.129 1.793.193.512.064.64.256.64.384 0 .448-.384.512-1.089.512-2.048 0-4.8-.192-5.313-.192-.64 0-3.329.192-4.93.192-.575 0-.96-.064-.96-.512 0-.128.256-.384.833-.384.448 0 .512 0 1.216-.064 1.536-.129 2.113-1.665 2.433-4.226l4.289-35.145c.128-1.088.384-1.6.704-1.6.32 0 .512.192.96 1.024l17.157 33.225 16.324-33.161c.32-.704.576-1.088.96-1.088s.577.576.64 1.6zM235.135 362c-2.689 0-5.186-.32-7.618-1.408-.832-.385-.832-.64-.832-2.177 0-2.945.192-5.121.256-6.018.064-.576.192-.896.512-.896s.448.192.448.64c0 .384 0 1.153.192 1.92.832 4.162 4.61 5.762 8.322 5.762 5.314 0 7.874-3.649 7.874-6.85 0-3.648-1.664-5.889-6.337-9.666l-2.561-1.985c-6.146-4.929-7.426-8.322-7.426-12.099 0-5.89 4.673-9.858 11.843-9.858 2.24 0 3.777.192 5.185.512 1.217.256 1.729.32 2.177.32.448 0 .576.128.576.384s-.256 2.497-.256 6.21c0 .96-.128 1.344-.448 1.344s-.384-.256-.448-.704c-.064-.576-.192-1.92-.768-3.009-.32-.576-1.793-3.009-7.17-3.009-3.841 0-6.722 2.305-6.722 6.146 0 3.009 1.536 4.865 6.85 8.898l1.472 1.152c6.658 5.122 8.386 8.515 8.386 13.06 0 2.305-.96 6.402-4.865 9.09-2.497 1.6-5.57 2.241-8.642 2.241zM77.6 156.8C22.8 156.8 0 114.2 0 78.2 0 45.8 23.6 0 78.8 0c45 0 78.6 28.4 78.6 75 0 44.8-31.6 81.8-79.8 81.8zm5.4-7.6c18 0 55.2-10.4 55.2-68.6 0-48-29.2-73.8-60.8-73.8C44 6.8 19 28.8 19 72.6c0 46.6 28 76.6 64 76.6zm119.06-91.574v45.373c0 30.627 0 42.348-6 55.771-4.2 9.453-13 18.338-29.2 28.926-2.6 1.701-5.8 3.78-7.8 4.726-.4.189-.8.378-1.4.378-.6 0-1.4-.378-1.4-1.134 0-1.135 1-1.702 2.8-2.836 2.4-1.324 5.2-3.592 7-5.294 13-12.477 19.2-22.497 19.2-71.273V57.626c0-29.493 0-34.786-.4-40.836-.4-6.428-2-9.453-8.6-10.776-1.6-.378-4.4-.567-6.2-.567-1.4 0-2.2-.567-2.2-1.324 0-.756.8-1.323 3-1.323 9 0 21.8.567 22.8.567s13.6-.567 19.6-.567c2.2 0 3.2.378 3.2 1.512 0 .757-1 1.135-2.2 1.135-1.4 0-3 .189-4.8.378-5.4.567-6.6 4.348-7 10.965-.4 6.05-.4 11.343-.4 40.836zM252.8 156.8c-9.4 0-18.6-1.4-26.8-5.4-2.8-1.4-3-2.2-3-7.6 0-10 .8-18 1-21.2.2-2.2.6-3.2 1.6-3.2 1.2 0 1.4.6 1.4 2.2 0 1.8 0 4.6.6 7.4 3 14.8 16.2 20.4 29.6 20.4 19.2 0 28.6-13.8 28.6-26.6 0-13.8-5.8-21.8-23-36l-9-7.4c-21.2-17.4-26-29.8-26-43.4 0-21.4 16-36 41.4-36 7.8 0 13.6.8 18.6 2 3.8.8 5.4 1 7 1 1.6 0 2 .4 2 1.4 0 1-.8 7.6-.8 21.2 0 3.2-.4 4.6-1.4 4.6-1.2 0-1.4-1-1.6-2.6-.2-2.4-1.4-7.8-2.6-10-1.2-2.2-6.6-10.6-25-10.6-13.8 0-24.6 8.6-24.6 23.2 0 11.4 5.2 18.6 24.4 33.6l5.6 4.4c23.6 18.6 29.2 31 29.2 47 0 8.2-3.2 23.4-17 33.2-8.6 6-19.4 8.4-30.2 8.4zM0 180h150v3H0zm190 0h110v3H190z"/></svg>