<?xml version="1.0" encoding="utf-8"?>
<!-- Generator: Adobe Illustrator 16.0.0, SVG Export Plug-In . SVG Version: 6.00 Build 0)  -->
<!DOCTYPE svg PUBLIC "-//W3C//DTD SVG 1.1//EN" "http://www.w3.org/Graphics/SVG/1.1/DTD/svg11.dtd">
<svg version="1.1" id="Layer_1" xmlns="http://www.w3.org/2000/svg" xmlns:xlink="http://www.w3.org/1999/xlink" x="0px" y="0px"
	 width="24px" height="24px" viewBox="0 0 24 24" enable-background="new 0 0 24 24" xml:space="preserve">
<path fill="#828282" d="M15.316,20H20.5c0.276,0,0.5,0.224,0.5,0.5S20.776,21,20.5,21h-17C3.224,21,3,20.776,3,20.5S3.224,20,3.5,20
	h8.498H12c1.317-0.002,2.588-0.517,3.536-1.465c1.953-1.952,1.953-5.118,0-7.071c-0.38-0.38-0.807-0.687-1.262-0.919
	c-0.019-0.008-0.037-0.017-0.055-0.028C12.553,9.693,10.523,9.854,8.999,11H10.5c0.276,0,0.5,0.224,0.5,0.5S10.776,12,10.5,12h-3
	C7.224,12,7,11.776,7,11.5v-3C7,8.224,7.224,8,7.5,8S8,8.224,8,8.5v2.028c1.464-1.312,3.417-1.779,5.23-1.401
	C13.084,8.755,13,8.366,13,8c0-1.657,1.344-3,3-3h0.293l-0.146-0.146c-0.195-0.195-0.195-0.512,0-0.707s0.512-0.195,0.707,0l1,1
	c0.195,0.195,0.195,0.512,0,0.707l-1,1c-0.195,0.195-0.512,0.195-0.707,0s-0.195-0.512,0-0.707L16.293,6H16c-1.104,0-2,0.896-2,2
	c0,0.562,0.33,1.273,0.752,1.667c0.537,0.277,1.041,0.641,1.49,1.091c2.344,2.343,2.344,6.142,0,8.485
	C15.957,19.528,15.646,19.781,15.316,20z"/>
</svg>
