<?xml version="1.0" encoding="utf-8"?>
<!-- Generator: Adobe Illustrator 16.0.0, SVG Export Plug-In . SVG Version: 6.00 Build 0)  -->
<!DOCTYPE svg PUBLIC "-//W3C//DTD SVG 1.1//EN" "http://www.w3.org/Graphics/SVG/1.1/DTD/svg11.dtd">
<svg version="1.1" id="Layer_1" xmlns="http://www.w3.org/2000/svg" xmlns:xlink="http://www.w3.org/1999/xlink" x="0px" y="0px"
	 width="841.89px" height="595.281px" viewBox="0 0 841.89 595.281" enable-background="new 0 0 841.89 595.281"
	 xml:space="preserve">
<path fill="#FFFFFF" fill-opacity="0" d="M718.585,595.281H123.305V0h595.281V595.281z"/>
<path fill="#828282" d="M420.945,24.803c-149.084-1.515-271.202,118.049-272.837,267.132
	c0.566,116.08,75.899,218.56,186.521,253.738c13.642,2.48,18.602-5.705,18.602-12.898c0-7.191,0-23.066,0-45.389
	c-75.898,16.121-92.02-35.717-92.02-35.717c-5.053-16.273-15.794-30.186-30.26-39.189c-24.803-16.371,1.984-16.123,1.984-16.123
	c17.369,2.322,32.721,12.465,41.669,27.531c16.014,27.768,51.32,37.588,79.371,22.076c1.387-13.584,7.538-26.236,17.362-35.717
	c-60.52-6.697-124.017-29.516-124.017-131.954c-0.541-26.721,9.332-52.605,27.532-72.178c-8.289-22.941-7.31-48.21,2.729-70.441
	c0,0,23.067-7.193,74.41,27.284c44.693-11.91,91.725-11.91,136.418,0c52.088-34.477,74.41-27.284,74.41-27.284
	c10.039,22.231,11.018,47.5,2.729,70.441c18.623,19.214,29.031,44.924,29.02,71.682c0,102.687-63.992,125.257-124.016,131.954
	c13.307,12.92,20.133,31.121,18.602,49.607v73.168c0,0,4.961,15.627,18.604,12.898c110.291-35.391,185.344-137.66,186.023-253.49
	C692.146,142.853,570.029,23.289,420.945,24.803"/>
</svg>
