<?xml version="1.0" encoding="utf-8"?>
<!-- Generator: Adobe Illustrator 16.0.0, SVG Export Plug-In . SVG Version: 6.00 Build 0)  -->
<!DOCTYPE svg PUBLIC "-//W3C//DTD SVG 1.1//EN" "http://www.w3.org/Graphics/SVG/1.1/DTD/svg11.dtd">
<svg version="1.1" id="Layer_1" xmlns="http://www.w3.org/2000/svg" xmlns:xlink="http://www.w3.org/1999/xlink" x="0px" y="0px"
	 width="256px" height="153px" viewBox="0 0 256 153" enable-background="new 0 0 256 153" xml:space="preserve">
<path fill="#828282" d="M72.392,55.438c0,3.136,0.339,5.679,0.933,7.544c0.678,1.865,1.525,3.899,2.712,6.103
	c0.424,0.678,0.593,1.356,0.593,1.95c0,0.848-0.508,1.695-1.61,2.543l-5.34,3.56c-0.763,0.509-1.526,0.764-2.204,0.764
	c-0.848,0-1.695-0.424-2.543-1.187c-1.187-1.271-2.204-2.628-3.052-3.984c-0.848-1.441-1.695-3.051-2.628-5.001
	c-6.612,7.798-14.919,11.698-24.922,11.698c-7.121,0-12.8-2.034-16.954-6.103s-6.273-9.494-6.273-16.276
	c0-7.205,2.543-13.054,7.714-17.462c5.171-4.408,12.037-6.612,20.769-6.612c2.882,0,5.849,0.254,8.985,0.678
	c3.136,0.424,6.357,1.102,9.748,1.865V29.33c0-6.442-1.356-10.936-3.984-13.563c-2.712-2.628-7.29-3.899-13.817-3.899
	c-2.967,0-6.019,0.339-9.155,1.102c-3.136,0.763-6.188,1.695-9.155,2.882c-1.356,0.594-2.374,0.933-2.967,1.102
	c-0.593,0.169-1.017,0.254-1.356,0.254c-1.187,0-1.78-0.848-1.78-2.628v-4.153c0-1.356,0.169-2.374,0.593-2.967
	s1.187-1.187,2.374-1.78C22.04,4.154,25.6,2.882,29.753,1.865c4.154-1.102,8.562-1.61,13.224-1.61
	c10.087,0,17.462,2.289,22.209,6.866c4.663,4.578,7.036,11.528,7.036,20.853v27.465H72.392z M37.976,68.323
	c2.797,0,5.68-0.509,8.731-1.526c3.051-1.017,5.764-2.882,8.053-5.425c1.356-1.61,2.374-3.391,2.882-5.425
	c0.508-2.035,0.848-4.493,0.848-7.375v-3.561c-2.458-0.593-5.086-1.102-7.799-1.441c-2.712-0.339-5.34-0.508-7.968-0.508
	c-5.679,0-9.833,1.102-12.63,3.391c-2.797,2.289-4.154,5.51-4.154,9.748c0,3.984,1.017,6.951,3.137,8.985
	C31.11,67.306,34.077,68.323,37.976,68.323z M106.045,77.479c-1.526,0-2.543-0.255-3.221-0.848c-0.678-0.508-1.271-1.695-1.78-3.306
	L81.123,7.799c-0.508-1.695-0.763-2.797-0.763-3.391c0-1.356,0.678-2.12,2.034-2.12h8.308c1.61,0,2.712,0.254,3.306,0.848
	c0.678,0.509,1.187,1.696,1.695,3.306l14.241,56.117l13.224-56.117c0.424-1.695,0.933-2.797,1.611-3.306
	c0.678-0.508,1.865-0.848,3.391-0.848h6.782c1.61,0,2.713,0.254,3.391,0.848c0.678,0.509,1.271,1.696,1.61,3.306l13.394,56.795
	l14.665-56.795c0.509-1.695,1.103-2.797,1.695-3.306c0.679-0.508,1.78-0.848,3.306-0.848h7.884c1.356,0,2.119,0.678,2.119,2.12
	c0,0.424-0.085,0.848-0.169,1.356c-0.086,0.509-0.255,1.187-0.594,2.119l-20.43,65.526c-0.508,1.695-1.102,2.797-1.779,3.306
	c-0.679,0.508-1.781,0.847-3.222,0.847h-7.29c-1.611,0-2.713-0.254-3.391-0.847s-1.271-1.695-1.611-3.391l-13.139-54.676
	L118.336,73.24c-0.424,1.695-0.933,2.797-1.611,3.391c-0.678,0.593-1.865,0.848-3.391,0.848H106.045z M214.973,79.768
	c-4.408,0-8.816-0.51-13.055-1.526c-4.238-1.018-7.545-2.119-9.748-3.391c-1.356-0.763-2.289-1.611-2.629-2.374
	c-0.338-0.763-0.508-1.61-0.508-2.373V65.78c0-1.78,0.678-2.628,1.949-2.628c0.509,0,1.018,0.085,1.526,0.254
	s1.271,0.508,2.119,0.848c2.882,1.271,6.019,2.289,9.324,2.967c3.392,0.678,6.696,1.017,10.087,1.017
	c5.341,0,9.494-0.932,12.377-2.797c2.882-1.865,4.408-4.577,4.408-8.053c0-2.374-0.764-4.323-2.289-5.934
	c-1.525-1.61-4.408-3.051-8.562-4.408l-12.292-3.814c-6.188-1.95-10.766-4.832-13.563-8.646c-2.797-3.73-4.238-7.883-4.238-12.292
	c0-3.56,0.763-6.697,2.289-9.409c1.525-2.712,3.561-5.086,6.104-6.951c2.543-1.95,5.425-3.391,8.815-4.408s6.95-1.441,10.681-1.441
	c1.865,0,3.814,0.084,5.68,0.339c1.949,0.254,3.729,0.593,5.51,0.933c1.695,0.424,3.306,0.848,4.832,1.356
	c1.525,0.509,2.713,1.018,3.561,1.526c1.186,0.678,2.033,1.356,2.543,2.119c0.508,0.678,0.762,1.611,0.762,2.797v3.984
	c0,1.78-0.678,2.712-1.949,2.712c-0.678,0-1.779-0.339-3.221-1.017c-4.832-2.204-10.258-3.306-16.275-3.306
	c-4.832,0-8.646,0.763-11.274,2.374c-2.628,1.611-3.984,4.069-3.984,7.544c0,2.374,0.848,4.408,2.543,6.019
	c1.696,1.611,4.832,3.221,9.325,4.662l12.037,3.815c6.104,1.95,10.511,4.662,13.139,8.138c2.628,3.475,3.899,7.459,3.899,11.868
	c0,3.645-0.763,6.951-2.204,9.833c-1.525,2.882-3.561,5.425-6.188,7.459c-2.629,2.119-5.765,3.645-9.41,4.747
	C223.279,79.174,219.295,79.768,214.973,79.768L214.973,79.768z"/>
<path fill="#FF9900" d="M230.993,120.965c-27.889,20.598-68.407,31.533-103.248,31.533c-48.826,0-92.821-18.056-126.05-48.063
	c-2.628-2.374-0.254-5.595,2.882-3.729c35.941,20.853,80.275,33.482,126.135,33.482c30.939,0,64.932-6.441,96.211-19.666
	C231.587,112.402,235.57,117.574,230.993,120.965z M242.606,107.74c-3.56-4.577-23.565-2.203-32.636-1.102
	c-2.713,0.339-3.137-2.035-0.678-3.814c15.936-11.189,42.129-7.969,45.182-4.238c3.051,3.814-0.848,30.008-15.768,42.553
	c-2.289,1.95-4.492,0.933-3.475-1.61C238.623,131.137,246.167,112.232,242.606,107.74L242.606,107.74z"/>
</svg>
