<?xml version="1.0" encoding="utf-8"?>
<!-- Generator: Adobe Illustrator 16.0.0, SVG Export Plug-In . SVG Version: 6.00 Build 0)  -->
<!DOCTYPE svg PUBLIC "-//W3C//DTD SVG 1.1//EN" "http://www.w3.org/Graphics/SVG/1.1/DTD/svg11.dtd">
<svg version="1.1" id="Layer_1" xmlns="http://www.w3.org/2000/svg" xmlns:xlink="http://www.w3.org/1999/xlink" x="0px" y="0px"
	 width="64px" height="64px" viewBox="0 0 64 64" enable-background="new 0 0 64 64" xml:space="preserve">
<path fill="#828282" d="M7.578,8.422c-2.047,0-3.703,1.656-3.703,3.703v6.563v5.609v20.266c0,2.047,1.656,3.688,3.703,3.688h21.5
	v2.328h-2.969c-0.719,0-1.297,0.578-1.297,1.297v2.406c0,0.719,0.578,1.297,1.297,1.297h11.781c0.719,0,1.297-0.578,1.297-1.297
	v-2.406c0-0.719-0.578-1.297-1.297-1.297h-2.969V48.25h21.5c2.047,0,3.703-1.641,3.703-3.688V18.688
	c0-2.047-1.656-3.675-3.703-3.688H26.703v-2.875c0-2.047-1.641-3.703-3.688-3.703H7.578z M23.781,26.563h4.391v2h-1.797v1.891h1.609
	v1.906h-1.609v4.188h-2.594V26.563z M28.359,26.563h5.672v2H32.5v7.984h-2.594v-7.984h-1.547V26.563z M34.625,26.563h2.625
	c0.707,0,1.247,0.061,1.625,0.172c0.383,0.111,0.67,0.275,0.859,0.484c0.193,0.209,0.309,0.466,0.375,0.766
	c0.07,0.296,0.109,0.75,0.109,1.375v0.875c0,0.637-0.057,1.099-0.188,1.391s-0.381,0.516-0.734,0.672
	c-0.35,0.156-0.808,0.234-1.375,0.234h-0.703v4.016h-2.594V26.563z M37.219,28.281v2.531c0.074,0.004,0.15,0.016,0.203,0.016
	c0.238,0,0.395-0.057,0.484-0.172c0.095-0.119,0.141-0.364,0.141-0.734v-0.828c0-0.341-0.049-0.554-0.156-0.656
	S37.556,28.281,37.219,28.281z M3.875,51.453v3.25h19.797c0-0.021,0-0.041,0-0.063v-2.719c0-0.16,0.019-0.317,0.047-0.469H3.875z
	 M40.281,51.453c0.027,0.151,0.047,0.309,0.047,0.469v2.719c0,0.021,0,0.041,0,0.063h19.797v-3.25H40.281z"/>
</svg>
