<?xml version="1.0" encoding="utf-8"?>
<!-- Generator: Adobe Illustrator 16.0.0, SVG Export Plug-In . SVG Version: 6.00 Build 0)  -->
<!DOCTYPE svg PUBLIC "-//W3C//DTD SVG 1.1//EN" "http://www.w3.org/Graphics/SVG/1.1/DTD/svg11.dtd">
<svg version="1.1" id="Layer_1" xmlns="http://www.w3.org/2000/svg" xmlns:xlink="http://www.w3.org/1999/xlink" x="0px" y="0px"
	 width="70px" height="70px" viewBox="0 -13.265 70 70" enable-background="new 0 -13.265 70 70" xml:space="preserve">
<path fill="#00BCF2" d="M13.018,43.37c-4.059-0.47-8.285-3.018-10.455-6.305c-1.885-2.855-2.688-5.689-2.548-8.994
	c0.167-3.939,1.463-6.921,4.213-9.692c2.18-2.197,4.05-3.289,6.98-4.075c1.164-0.312,1.601-0.357,3.525-0.36
	c1.81,0,2.392,0.048,3.296,0.287c0.604,0.16,1.194,0.329,1.31,0.375c0.163,0.064,0.318-0.18,0.668-1.053
	c2.693-6.708,8.375-11.491,15.646-13.171c1.531-0.354,5.467-0.5,7.209-0.269c9.569,1.274,17.111,8.691,18.655,18.345
	c0.352,2.199,0.141,6.322-0.423,8.275l-0.129,0.445h0.849c3.129,0.01,6.035,1.805,7.35,4.544c0.694,1.448,0.904,2.515,0.814,4.144
	c-0.189,3.418-2.386,6.16-5.873,7.331c-0.723,0.243-1.83,0.255-25.407,0.271c-13.559,0.01-25.115-0.036-25.682-0.102V43.37z
	 M36.537,30.467c0.283-0.078,0.73-0.365,0.995-0.639l0.481-0.494v0.57v0.57h1.029h1.03v-3.502v-3.502h-1.03h-1.029v2.245
	c0,2.11-0.02,2.274-0.314,2.712c-0.27,0.402-0.4,0.473-0.945,0.508c-0.548,0.037-0.671-0.01-0.922-0.327
	c-0.271-0.343-0.291-0.534-0.291-2.753V23.47h-1.116h-1.116l0.068,2.644c0.041,1.572,0.135,2.811,0.233,3.057
	C34.078,30.342,35.199,30.838,36.537,30.467L36.537,30.467z M52.605,30.321c0.51-0.166,0.516-0.174,0.516-0.899
	c0-0.403-0.023-0.731-0.053-0.731s-0.273,0.092-0.545,0.205c-0.648,0.271-2.047,0.266-2.58-0.01
	c-0.338-0.175-0.806-0.885-0.806-1.223c0-0.04,1.02-0.072,2.267-0.072h2.266v-0.996c-0.01-2.031-1.17-3.26-3.088-3.26
	c-2.275,0-3.81,2.037-3.395,4.508c0.237,1.404,1.027,2.303,2.309,2.624c0.655,0.165,2.41,0.082,3.112-0.146H52.605z M49.225,26.246
	c-0.139-0.224,0.429-1.205,0.791-1.37c0.457-0.209,0.664-0.211,1.092-0.016c0.375,0.17,0.64,0.65,0.64,1.158
	c0,0.332-0.017,0.337-1.228,0.337C49.844,26.355,49.261,26.305,49.225,26.246L49.225,26.246z M18.773,29.338l0.346-1.068
	l1.783,0.037l1.782,0.039l0.345,1.064l0.345,1.064h1.148c1.128,0,1.147-0.011,1.052-0.31c-0.053-0.17-0.822-2.349-1.708-4.841
	l-1.61-4.533l-1.303-0.039l-1.303-0.039l-1.737,4.776c-0.956,2.628-1.737,4.826-1.737,4.887c0,0.06,0.506,0.091,1.125,0.068
	l1.125-0.039L18.773,29.338L18.773,29.338z M19.61,26.526c0-0.056,0.242-0.844,0.537-1.75c0.296-0.907,0.581-1.834,0.634-2.061
	c0.087-0.369,0.13-0.289,0.416,0.756c0.175,0.641,0.446,1.531,0.602,1.979c0.426,1.219,0.458,1.18-0.953,1.18
	C20.167,26.629,19.61,26.583,19.61,26.526z M32.246,29.719v-0.756h-1.571c-0.864,0-1.599-0.045-1.632-0.103s0.674-1.058,1.571-2.224
	c1.427-1.855,1.632-2.186,1.632-2.644v-0.522h-2.953H26.34v0.755v0.755h1.58c0.869,0,1.578,0.047,1.576,0.104
	c0,0.057-0.774,1.092-1.716,2.301c-1.389,1.781-1.713,2.281-1.713,2.643v0.447h3.09h3.09V29.719L32.246,29.719z M44.078,28.449
	c0.04-1.741,0.086-2.093,0.328-2.507c0.387-0.658,0.897-0.889,1.586-0.715l0.536,0.137v-0.931c0-1.048-0.151-1.19-0.999-0.95
	c-0.596,0.17-0.693,0.244-1.112,0.865l-0.36,0.534v-0.706v-0.705h-1.03h-1.03v3.502v3.502h1.018h1.018L44.078,28.449L44.078,28.449z
	"/>
</svg>
