<?xml version="1.0" encoding="utf-8"?>
<!-- Generator: Adobe Illustrator 16.0.0, SVG Export Plug-In . SVG Version: 6.00 Build 0)  -->
<!DOCTYPE svg PUBLIC "-//W3C//DTD SVG 1.1//EN" "http://www.w3.org/Graphics/SVG/1.1/DTD/svg11.dtd">
<svg version="1.1" id="Layer_1" xmlns="http://www.w3.org/2000/svg" xmlns:xlink="http://www.w3.org/1999/xlink" x="0px" y="0px"
	 width="512px" height="125px" viewBox="0 0 512 125" enable-background="new 0 0 512 125" xml:space="preserve">
<path fill="#828282" d="M269.002,99.313c-8.397,5.706-19.865,3.518-25.575-4.88c-5.71-8.397-3.517-19.868,4.88-25.587
	c8.393-5.706,19.864-3.514,25.574,4.884C279.596,82.123,277.407,93.598,269.002,99.313 M280.396,69.301
	c-8.154-12.016-24.515-15.125-36.518-6.962c-12.012,8.163-15.129,24.519-6.962,36.522c7.222,10.637,20.861,14.281,32.222,9.33
	l10.173,16.521l8.073-5.484l-10.169-16.522C286.004,93.965,287.631,79.926,280.396,69.301 M0,106.127
	c3.781,2.045,9.606,3.577,16.147,3.577c14.307,0,21.563-6.847,21.563-16.249c-0.103-7.256-3.986-12.059-13.49-15.329
	c-6.131-2.044-8.073-3.372-8.073-5.724c0-2.452,2.146-3.985,5.927-3.985c4.19,0,8.584,1.636,10.833,2.759l2.657-10.628
	c-3.066-1.533-8.175-2.963-14-2.963c-12.366,0-20.337,7.051-20.337,16.454C1.124,79.863,5.11,85.484,15.534,88.959
	c5.723,1.839,7.256,3.168,7.256,5.723s-1.941,4.088-6.643,4.088c-4.599,0-10.526-1.941-13.388-3.68L0,106.127z M65.201,109.807
	c13.286,0,26.265-8.381,26.265-26.571c0-15.125-10.22-25.651-25.447-25.651c-16.147,0-26.775,10.322-26.775,26.468
	c0,16.147,11.242,25.754,25.855,25.754H65.201z M65.405,98.667c-6.541,0-10.117-6.438-10.117-14.921
	c0-7.46,2.861-15.022,10.219-15.022c7.052,0,9.913,7.563,9.913,14.921c0,8.993-3.781,15.022-9.913,15.022H65.405z M95.962,108.682
	h15.534V79.863c0-1.432,0.102-2.861,0.511-3.884c1.125-2.861,3.679-5.825,7.971-5.825c5.621,0,7.869,4.395,7.869,10.833v27.694
	h15.534V79.147c0-14.716-7.665-21.563-17.884-21.563c-8.38,0-13.387,4.803-15.431,8.074h-0.307l-0.715-6.95h-13.49
	c0.204,4.497,0.409,9.708,0.409,15.942V108.682z M192.333,79.147c0-11.753-5.212-21.563-21.87-21.563
	c-9.095,0-15.942,2.555-19.417,4.497l2.861,9.913c3.271-1.941,8.687-3.68,13.796-3.68c7.665,0,9.096,3.781,9.096,6.439v0.612
	c-17.68,0-29.331,6.132-29.331,19.11c0,7.972,6.03,15.33,16.147,15.33c5.927,0,11.037-2.146,14.308-6.132h0.307l0.919,5.007h14.001
	c-0.613-2.759-0.817-7.357-0.817-12.059V79.147z M177.31,90.491c0,0.92-0.102,1.84-0.307,2.657
	c-1.022,3.168-4.292,5.723-8.073,5.723c-3.475,0-6.132-1.941-6.132-5.927c0-5.928,6.336-7.869,14.512-7.869V90.491z
	 M199.588,108.682h15.534V83.439c0-1.328,0.102-2.452,0.307-3.475c1.022-4.905,4.905-7.869,10.628-7.869
	c1.738,0,2.964,0.205,4.19,0.409V57.891c-1.125-0.205-1.84-0.307-3.271-0.307c-4.905,0-10.935,3.066-13.49,10.423h-0.409
	l-0.613-9.299h-13.286c0.307,4.292,0.409,9.095,0.409,16.454V108.682z M331.648,59.497h-8.993v30.25c0,1.738-0.307,3.373-0.817,4.6
	c-1.635,4.088-5.825,8.277-11.854,8.277c-8.073,0-11.037-6.438-11.037-15.84V59.497h-8.993v28.921
	c0,17.271,9.299,21.666,17.066,21.666c8.789,0,14.104-5.213,16.352-9.198h0.204l0.511,8.073h7.972
	c-0.307-3.883-0.409-8.38-0.409-13.592V59.497z M341.459,96.185c0,4.395-0.102,9.402-0.408,12.774h7.767l0.511-8.176h0.205
	c3.781,6.541,9.402,9.301,16.556,9.301c11.037,0,22.278-8.789,22.278-26.571c0-14.921-8.584-25.14-20.848-25.14
	c-7.972,0-13.694,3.475-16.862,8.993h-0.204V36.4h-8.994V96.185z M350.453,80.242c0-1.431,0.204-2.657,0.511-3.781
	c1.737-6.744,7.46-11.037,13.592-11.037c9.606,0,14.716,8.482,14.716,18.498c0,11.344-5.518,19.008-15.022,19.008
	c-6.438,0-11.753-4.292-13.489-10.525c-0.205-1.022-0.307-2.146-0.307-3.271V80.242z M434.253,85.863
	c0.205-1.021,0.307-2.351,0.307-4.19c0-9.095-4.189-23.3-20.337-23.3c-14.41,0-23.301,11.752-23.301,26.672
	c0,14.818,9.197,24.937,24.322,24.937c7.87,0,13.389-1.737,16.557-3.169l-1.636-6.438c-3.27,1.431-7.256,2.555-13.694,2.555
	c-8.992,0-16.658-5.008-16.861-17.066H434.253z M399.711,79.425c0.715-6.233,4.6-14.614,13.797-14.614
	c10.015,0,12.468,8.891,12.365,14.614H399.711z"/>
<path fill="#499CD2" d="M496.693,108.787h-6.285c0-50.625-41.772-91.81-93.113-91.81v-6.285
	C452.106,10.692,496.693,54.688,496.693,108.787z M501.037,75.02c-7.541-31.757-33.277-58.264-65.546-67.529l1.447-5.038
	c34.057,9.781,61.22,37.783,69.191,71.354L501.037,75.02z M508.114,45.217c-7.775-16.956-21.035-31.745-37.306-41.636L472.984,0
	c16.99,10.33,30.808,25.758,38.932,43.467L508.114,45.217z"/>
</svg>
