<?xml version="1.0" encoding="utf-8"?>
<!-- Generator: Adobe Illustrator 16.0.0, SVG Export Plug-In . SVG Version: 6.00 Build 0)  -->
<!DOCTYPE svg PUBLIC "-//W3C//DTD SVG 1.1//EN" "http://www.w3.org/Graphics/SVG/1.1/DTD/svg11.dtd">
<svg version="1.1" id="Layer_1" xmlns="http://www.w3.org/2000/svg" xmlns:xlink="http://www.w3.org/1999/xlink" x="0px" y="0px"
	 width="32px" height="32px" viewBox="0 0 32 32" enable-background="new 0 0 32 32" xml:space="preserve">
<path fill="#828282" d="M30,11h-5v10h2v-3h3c1.104-0.002,1.998-0.896,2-2v-3C31.998,11.896,31.104,11.001,30,11z M27,16v-3h3
	l0.001,3H27z"/>
<path fill="#828282" d="M10,13h2v8h2v-8h2v-2h-6V13z"/>
<path fill="#828282" d="M23,11h-6v2h2v8h2v-8h2V11z"/>
<path fill="#828282" d="M6,11v4H3v-4H1v10h2v-4h3v4h2V11H6z"/>
<path fill="none" d="M0,0h32v32H0V0z"/>
</svg>
