<?xml version="1.0" encoding="utf-8"?>
<!-- Generator: Adobe Illustrator 16.0.0, SVG Export Plug-In . SVG Version: 6.00 Build 0)  -->
<!DOCTYPE svg PUBLIC "-//W3C//DTD SVG 1.1//EN" "http://www.w3.org/Graphics/SVG/1.1/DTD/svg11.dtd">
<svg version="1.1" id="Layer_1" xmlns="http://www.w3.org/2000/svg" xmlns:xlink="http://www.w3.org/1999/xlink" x="0px" y="0px"
	 width="841.89px" height="595.281px" viewBox="0 0 841.89 595.281" enable-background="new 0 0 841.89 595.281"
	 xml:space="preserve">
<path fill="#828282" d="M272.125,74.41v74.41h-74.41V74.41H272.125z M160.51,37.205v148.82h148.82V37.205H160.51z"/>
<path fill="#828282" d="M458.15,130.218v74.41h-74.41v-74.41H458.15z M346.535,93.013v148.82h148.82V93.013H346.535z"/>
<path fill="#828282" d="M272.125,297.64v74.41h-74.41v-74.41H272.125z M160.51,260.435v148.82h148.82v-148.82H160.51z"/>
<path fill="#828282" d="M532.56,186.025V297.64H420.945v111.615H309.33v148.82H681.38V186.025H532.56z M458.15,334.845h74.41v74.41
	h-74.41V334.845z M420.945,520.871h-74.41v-74.41h74.41V520.871z M532.56,520.871h-74.41v-74.41h74.41V520.871z M644.175,520.871
	h-74.41v-74.41h74.41V520.871z M644.175,409.255h-74.41v-74.41h74.41V409.255z M569.765,297.64v-74.41h74.41v74.41H569.765z"/>
<path fill="none" d="M123.305,0h595.281v595.281H123.305V0z"/>
</svg>
